{"title":"Oblivion 2013 READNFO CAM XViD OPTiMUM","uid":8369660,"size":918966317,"categoryP":"video","categoryS":"movies","magnet":"?xt=urn:btih:e7c5fa6ee7f88a1c05533e4b55ac55f15336036c&amp;dn=Oblivion+2013+READNFO+CAM+XViD+OPTiMUM&amp;tr=udp%3A%2F%2Ftracker.openbittorrent.com%3A80&amp;tr=udp%3A%2F%2Fopen.demonii.com%3A1337&amp;tr=udp%3A%2F%2Ftracker.coppersurfer.tk%3A6969&amp;tr=udp%3A%2F%2Fexodus.desync.com%3A6969","seeders":1,"leechers":0,"uploader":"Gh0stNet","files":3,"time":1365874340,"description":"Format                                   : AVI\nFormat/Info                              : Audio Video Interleave\nFile size                                : 865 MiB\nDuration                                 : 1h 57mn\nOverall bit rate                         : 1 034 Kbps\nWriting application                      : VirtualDubMod 1.5.10.2 (build 2540/release)\nWriting library                          : VirtualDubMod build 2540/release\n\nVideo\nID                                       : 0\nFormat                                   : MPEG-4 Visual\nFormat profile                           : Advanced Simple@L5\nFormat settings, BVOP                    : 2\nFormat settings, QPel                    : No\nFormat settings, GMC                     : No warppoints\nFormat settings, Matrix                  : Default (H.263)\nMuxing mode                              : Packed bitstream\nCodec ID                                 : XVID\nCodec ID/Hint                            : XviD\nDuration                                 : 1h 57mn\nBit rate                                 : 896 Kbps\nWidth                                    : 692 pixels\nHeight                                   : 258 pixels\nDisplay aspect ratio                     : 2.682\nFrame rate                               : 25.000 fps\nColor space                              : YUV\nChroma subsampling                       : 4:2:0\nBit depth                                : 8 bits\nScan type                                : Progressive\nCompression mode                         : Lossy\nBits/(Pixel*Frame)                       : 0.201\nStream size                              : 750 MiB (87%)\nWriting library                          : XviD 64\n\nAudio\nID                                       : 1\nFormat                                   : MPEG Audio\nFormat version                           : Version 1\nFormat profile                           : Layer 3\nCodec ID                                 : 55\nCodec ID/Hint                            : MP3\nDuration                                 : 1h 57mn\nBit rate mode                            : Constant\nBit rate                                 : 128 Kbps\nChannel(s)                               : 2 channels\nSampling rate                            : 44.1 KHz\nCompression mode                         : Lossy\nStream size                              : 107 MiB (12%)\nAlignment                                : Split accross interleaves\nInterleave, duration                     : 40 ms (1.00 video frame)\nInterleave, preload duration             : 500 ms\n\n\n\nSource Used\n\nFOX / Thank you\n\nScreens: &lt;a href=&quot;\nhttp://i.imgur.com/lFMxmMy.png&quot; rel=&quot;nofollow&quot; target=&quot;_NEW&quot;&gt;\nhttp://i.imgur.com/lFMxmMy.png&lt;/a&gt; &lt;a href=&quot;\nhttp://i.imgur.com/f40wHjR.png&quot; rel=&quot;nofollow&quot; target=&quot;_NEW&quot;&gt;\nhttp://i.imgur.com/f40wHjR.png&lt;/a&gt; &lt;a href=&quot;\nhttp://i.imgur.com/RcIdYlS.png&quot; rel=&quot;nofollow&quot; target=&quot;_NEW&quot;&gt;\nhttp://i.imgur.com/RcIdYlS.png&lt;/a&gt; &lt;a href=&quot;\nhttp://i.imgur.com/ksIKBQz.png&quot; rel=&quot;nofollow&quot; target=&quot;_NEW&quot;&gt;\nhttp://i.imgur.com/ksIKBQz.png&lt;/a&gt;","torrent":{"xt":"urn:btih:e7c5fa6ee7f88a1c05533e4b55ac55f15336036c","amp;dn":"Oblivion+2013+READNFO+CAM+XViD+OPTiMUM","amp;tr":["udp%3A%2F%2Ftracker.openbittorrent.com%3A80","udp%3A%2F%2Fopen.demonii.com%3A1337","udp%3A%2F%2Ftracker.coppersurfer.tk%3A6969","udp%3A%2F%2Fexodus.desync.com%3A6969"],"infoHash":"e7c5fa6ee7f88a1c05533e4b55ac55f15336036c","infoHashBuffer":{"type":"Buffer","data":[231,197,250,110,231,248,138,28,5,83,62,75,85,172,85,241,83,54,3,108]},"announce":[],"urlList":[]}}